<svg xmlns="http://www.w3.org/2000/svg" viewBox="0 0 32 32" aria-hidden="true">
  <g fill="none" stroke="#2563EB" stroke-width="0.42" stroke-linecap="round" opacity="0.55">
    <line x1="16" y1="4" x2="8" y2="7" />
    <line x1="16" y1="4" x2="24" y2="7" />
    <line x1="16" y1="4" x2="16" y2="9" />
    <line x1="8" y1="7" x2="24" y2="7" />
    <line x1="8" y1="7" x2="5" y2="12" />
    <line x1="8" y1="7" x2="16" y2="9" />
    <line x1="8" y1="7" x2="7" y2="16.5" />
    <line x1="24" y1="7" x2="16" y2="9" />
    <line x1="24" y1="7" x2="27" y2="12" />
    <line x1="24" y1="7" x2="25" y2="16.5" />
    <line x1="5" y1="12" x2="16" y2="9" />
    <line x1="5" y1="12" x2="7" y2="16.5" />
    <line x1="5" y1="12" x2="9" y2="20" />
    <line x1="16" y1="9" x2="27" y2="12" />
    <line x1="16" y1="9" x2="7" y2="16.5" />
    <line x1="16" y1="9" x2="25" y2="16.5" />
    <line x1="16" y1="9" x2="16" y2="16" />
    <line x1="27" y1="12" x2="25" y2="16.5" />
    <line x1="27" y1="12" x2="16" y2="16" />
    <line x1="27" y1="12" x2="23" y2="20" />
    <line x1="7" y1="16.5" x2="25" y2="16.5" />
    <line x1="7" y1="16.5" x2="16" y2="16" />
    <line x1="7" y1="16.5" x2="9" y2="20" />
    <line x1="7" y1="16.5" x2="5" y2="23.5" />
    <line x1="25" y1="16.5" x2="16" y2="16" />
    <line x1="25" y1="16.5" x2="23" y2="20" />
    <line x1="25" y1="16.5" x2="27" y2="23.5" />
    <line x1="16" y1="16" x2="9" y2="20" />
    <line x1="16" y1="16" x2="23" y2="20" />
    <line x1="16" y1="16" x2="12" y2="26.5" />
    <line x1="16" y1="16" x2="20" y2="26.5" />
    <line x1="9" y1="20" x2="23" y2="20" />
    <line x1="9" y1="20" x2="5" y2="23.5" />
    <line x1="9" y1="20" x2="12" y2="26.5" />
    <line x1="23" y1="20" x2="27" y2="23.5" />
    <line x1="23" y1="20" x2="20" y2="26.5" />
    <line x1="5" y1="23.5" x2="12" y2="26.5" />
    <line x1="27" y1="23.5" x2="20" y2="26.5" />
    <line x1="12" y1="26.5" x2="20" y2="26.5" />
    <line x1="12" y1="26.5" x2="16" y2="29" />
    <line x1="20" y1="26.5" x2="16" y2="29" />
  </g>
  <g fill="#2563EB">
    <circle cx="16" cy="4" r="1.2" />
    <circle cx="8" cy="7" r="0.95" />
    <circle cx="24" cy="7" r="0.95" />
    <circle cx="5" cy="12" r="0.85" />
    <circle cx="16" cy="9" r="1.4" />
    <circle cx="27" cy="12" r="0.85" />
    <circle cx="7" cy="16.5" r="1.1" />
    <circle cx="25" cy="16.5" r="1.1" />
    <circle cx="16" cy="16" r="1.35" />
    <circle cx="9" cy="20" r="0.95" />
    <circle cx="23" cy="20" r="0.95" />
    <circle cx="5" cy="23.5" r="0.75" />
    <circle cx="27" cy="23.5" r="0.75" />
    <circle cx="12" cy="26.5" r="0.9" />
    <circle cx="20" cy="26.5" r="0.9" />
    <circle cx="16" cy="29" r="0.8" />
  </g>
</svg>
